M48
; DRILL file {KiCad 8.0.1} date 2024-05-12T15:38:39-0300
; FORMAT={-:-/ absolute / inch / decimal}
; #@! TF.CreationDate,2024-05-12T15:38:39-03:00
; #@! TF.GenerationSoftware,Kicad,Pcbnew,8.0.1
; #@! TF.FileFunction,Plated,1,2,PTH
FMAT,2
INCH
; #@! TA.AperFunction,Plated,PTH,ViaDrill
T1C0.0118
; #@! TA.AperFunction,Plated,PTH,ComponentDrill
T2C0.0315
; #@! TA.AperFunction,Plated,PTH,ComponentDrill
T3C0.0354
; #@! TA.AperFunction,Plated,PTH,ComponentDrill
T4C0.0394
; #@! TA.AperFunction,Plated,PTH,ComponentDrill
T5C0.0472
%
G90
G05
T1
X5.2Y-3.02
X5.2164Y-3.16
X5.24Y-3.5836
X5.2584Y-3.2816
X5.28Y-3.46
X5.38Y-2.72
X5.4Y-2.8
X5.4Y-3.56
X5.42Y-3.3
X5.46Y-3.34
X5.46Y-3.54
X5.5Y-3.36
X5.5236Y-3.26
X5.58Y-3.26
T2
X5.0236Y-2.9134
X5.0236Y-3.0134
X5.0236Y-3.1134
X5.0236Y-3.2134
X5.0236Y-3.3134
X5.0236Y-3.4134
X5.0236Y-3.5134
X5.0236Y-3.6134
X5.0236Y-3.7134
X5.0236Y-3.8134
X5.0816Y-2.74
X5.2784Y-2.74
X5.3236Y-2.9134
X5.3236Y-3.0134
X5.3236Y-3.1134
X5.3236Y-3.2134
X5.3236Y-3.3134
X5.3236Y-3.4134
X5.3236Y-3.5134
X5.3236Y-3.6134
X5.3236Y-3.7134
X5.3236Y-3.8134
T3
X5.5102Y-2.72
X5.6102Y-2.72
T4
X4.84Y-2.52
X4.94Y-2.52
X5.04Y-2.52
X5.14Y-2.52
X5.24Y-2.52
X5.34Y-2.52
X5.82Y-2.42
X5.82Y-2.52
X5.82Y-2.62
X5.82Y-2.72
X5.82Y-2.82
X5.82Y-2.92
X5.82Y-3.02
X5.82Y-3.12
X5.82Y-3.22
X5.82Y-3.32
X5.82Y-3.42
X5.82Y-3.52
X5.82Y-3.62
X5.82Y-3.72
X5.82Y-3.82
X5.82Y-3.92
X5.82Y-4.02
X5.82Y-4.12
X5.82Y-4.22
X5.82Y-4.32
T5
X4.84Y-2.77
X4.84Y-3.27
X5.52Y-2.95
X5.52Y-3.45
M30
